{
  "asset": {
    "version": "2.0",
    "generator": "Sketchup glTF Exporter v1.2.6 by Centaur"
  },
  "scene": 0,
  "scenes": [
    {
      "nodes": [
        0
      ]
    }
  ],
  "samplers": [
    {
    }
  ],
  "nodes": [
    {
      "name": "root",
      "children": [
        1,
        2
      ],
      "mesh": 2
    },
    {
      "name": "2018#1",
      "mesh": 0
    },
    {
      "name": "Positioning Libr",
      "mesh": 1
    }
  ],
  "materials": [
    {
      "pbrMetallicRoughness": {
        "baseColorFactor": [
          0.0759,
          0.139,
          0.0046,
          1.0
        ],
        "metallicFactor": 0.1,
        "roughnessFactor": 0.9
      },
      "name": "Material2"
    },
    {
      "pbrMetallicRoughness": {
        "baseColorFactor": [
          0.0582,
          0.4205,
          0.0,
          1.0
        ],
        "metallicFactor": 0.1,
        "roughnessFactor": 0.9
      },
      "name": "Material3"
    },
    {
      "pbrMetallicRoughness": {
        "baseColorFactor": [
          0.2176,
          0.2176,
          0.2176,
          1.0
        ],
        "metallicFactor": 0.1,
        "roughnessFactor": 0.9
      },
      "name": "default material",
      "doubleSided": true
    },
    {
      "pbrMetallicRoughness": {
        "baseColorTexture": {
          "index": 0
        },
        "metallicFactor": 0.1,
        "roughnessFactor": 0.9
      },
      "name": "Pavers with Grass Herringbone"
    }
  ],
  "images": [
    {
      "bufferView": 0,
      "mimeType": "image/jpeg"
    }
  ],
  "textures": [
    {
      "source": 0,
      "sampler": 0
    }
  ],
  "meshes": [
    {
      "primitives": [
        {
          "attributes": {
            "POSITION": 2,
            "NORMAL": 3,
            "TEXCOORD_0": 4
          },
          "indices": 5,
          "mode": 4,
          "material": 3
        }
      ]
    },
    {
      "primitives": [
        {
          "attributes": {
            "POSITION": 2,
            "NORMAL": 3,
            "TEXCOORD_0": 4
          },
          "indices": 6,
          "mode": 4,
          "material": 3
        }
      ]
    },
    {
      "primitives": [
        {
          "attributes": {
            "POSITION": 0,
            "NORMAL": 1
          },
          "indices": 7,
          "mode": 4,
          "material": 0
        },
        {
          "attributes": {
            "POSITION": 0,
            "NORMAL": 1
          },
          "indices": 8,
          "mode": 4,
          "material": 1
        },
        {
          "attributes": {
            "POSITION": 0,
            "NORMAL": 1
          },
          "indices": 9,
          "mode": 4,
          "material": 2
        }
      ]
    }
  ],
  "accessors": [
    {
      "bufferView": 1,
      "componentType": 5126,
      "count": 726,
      "type": "VEC3",
      "min": [
        -0.0022471327000963656,
        -0.02096594205852018,
        -0.12937705178323666
      ],
      "max": [
        0.12733117604538352,
        0.020208743941479815,
        0.001299104730508971
      ]
    },
    {
      "bufferView": 2,
      "componentType": 5126,
      "count": 726,
      "type": "VEC3",
      "min": [
        -0.9799004140943779,
        -1.0,
        -0.97742953332539
      ],
      "max": [
        0.9993276013253615,
        1.0,
        0.9990739440831038
      ]
    },
    {
      "bufferView": 3,
      "componentType": 5126,
      "count": 7842,
      "type": "VEC3",
      "min": [
        0.0002777907940883642,
        -0.02184463900000001,
        -0.17292260793390635
      ],
      "max": [
        0.13357186101111726,
        0.02186225125156628,
        0.5756291079681417
      ]
    },
    {
      "bufferView": 4,
      "componentType": 5126,
      "count": 7842,
      "type": "VEC3",
      "min": [
        -1.0,
        -1.0,
        -1.0
      ],
      "max": [
        1.0,
        1.0,
        1.0
      ]
    },
    {
      "bufferView": 5,
      "componentType": 5126,
      "count": 7842,
      "type": "VEC2",
      "min": [
        -21.99543035068944,
        -0.5748031496062993
      ],
      "max": [
        21.99543035068944,
        3.199967739265713
      ]
    },
    {
      "bufferView": 7,
      "componentType": 5123,
      "count": 2244,
      "type": "SCALAR"
    },
    {
      "bufferView": 7,
      "componentType": 5123,
      "count": 13020,
      "type": "SCALAR",
      "byteOffset": 4488
    },
    {
      "bufferView": 6,
      "componentType": 5123,
      "count": 1188,
      "type": "SCALAR"
    },
    {
      "bufferView": 6,
      "componentType": 5123,
      "count": 276,
      "type": "SCALAR",
      "byteOffset": 2376
    },
    {
      "bufferView": 6,
      "componentType": 5123,
      "count": 240,
      "type": "SCALAR",
      "byteOffset": 2928
    }
  ],
  "bufferViews": [
    {
      "buffer": 0,
      "byteLength": 35919
    },
    {
      "buffer": 0,
      "byteOffset": 35928,
      "byteLength": 8712,
      "target": 34962,
      "byteStride": 12
    },
    {
      "buffer": 0,
      "byteOffset": 44640,
      "byteLength": 8712,
      "target": 34962,
      "byteStride": 12
    },
    {
      "buffer": 0,
      "byteOffset": 53352,
      "byteLength": 94104,
      "target": 34962,
      "byteStride": 12
    },
    {
      "buffer": 0,
      "byteOffset": 147456,
      "byteLength": 94104,
      "target": 34962,
      "byteStride": 12
    },
    {
      "buffer": 0,
      "byteOffset": 241560,
      "byteLength": 62736,
      "target": 34962,
      "byteStride": 8
    },
    {
      "buffer": 0,
      "byteOffset": 304296,
      "byteLength": 3408,
      "target": 34963
    },
    {
      "buffer": 0,
      "byteOffset": 307704,
      "byteLength": 30528,
      "target": 34963
    }
  ],
  "buffers": [
    {
      "uri": "data:application/octet-stream;base64,",
      "byteLength": 338232
    }
  ]
}