{
  "asset": {
    "version": "2.0",
    "generator": "Sketchup glTF Exporter v1.2.6 by Centaur"
  },
  "scene": 0,
  "scenes": [
    {
      "nodes": [
        0
      ]
    }
  ],
  "samplers": [
    {
    }
  ],
  "nodes": [
    {
      "name": "root",
      "mesh": 0
    }
  ],
  "materials": [
    {
      "pbrMetallicRoughness": {
        "baseColorFactor": [
          0.0759,
          0.139,
          0.0046,
          1.0
        ],
        "metallicFactor": 0.1,
        "roughnessFactor": 0.9
      },
      "name": "Material2"
    },
    {
      "pbrMetallicRoughness": {
        "baseColorFactor": [
          0.0582,
          0.4205,
          0.0,
          1.0
        ],
        "metallicFactor": 0.1,
        "roughnessFactor": 0.9
      },
      "name": "Material3"
    },
    {
      "pbrMetallicRoughness": {
        "baseColorFactor": [
          0.2176,
          0.2176,
          0.2176,
          1.0
        ],
        "metallicFactor": 0.1,
        "roughnessFactor": 0.9
      },
      "name": "default material",
      "doubleSided": true
    }
  ],
  "meshes": [
    {
      "primitives": [
        {
          "attributes": {
            "POSITION": 0,
            "NORMAL": 1
          },
          "indices": 2,
          "mode": 4,
          "material": 0
        },
        {
          "attributes": {
            "POSITION": 0,
            "NORMAL": 1
          },
          "indices": 3,
          "mode": 4,
          "material": 1
        },
        {
          "attributes": {
            "POSITION": 0,
            "NORMAL": 1
          },
          "indices": 4,
          "mode": 4,
          "material": 2
        }
      ]
    }
  ],
  "accessors": [
    {
      "bufferView": 0,
      "componentType": 5126,
      "count": 726,
      "type": "VEC3",
      "min": [
        -0.0022471327000963656,
        -0.02096594205852018,
        -0.12937705178323666
      ],
      "max": [
        0.12733117604538352,
        0.020208743941479815,
        0.001299104730508971
      ]
    },
    {
      "bufferView": 1,
      "componentType": 5126,
      "count": 726,
      "type": "VEC3",
      "min": [
        -0.9799004140943779,
        -1.0,
        -0.97742953332539
      ],
      "max": [
        0.9993276013253615,
        1.0,
        0.9990739440831038
      ]
    },
    {
      "bufferView": 2,
      "componentType": 5123,
      "count": 1188,
      "type": "SCALAR"
    },
    {
      "bufferView": 2,
      "componentType": 5123,
      "count": 276,
      "type": "SCALAR",
      "byteOffset": 2376
    },
    {
      "bufferView": 2,
      "componentType": 5123,
      "count": 240,
      "type": "SCALAR",
      "byteOffset": 2928
    }
  ],
  "bufferViews": [
    {
      "buffer": 0,
      "byteLength": 8712,
      "target": 34962,
      "byteStride": 12
    },
    {
      "buffer": 0,
      "byteOffset": 8712,
      "byteLength": 8712,
      "target": 34962,
      "byteStride": 12
    },
    {
      "buffer": 0,
      "byteOffset": 17424,
      "byteLength": 3408,
      "target": 34963
    }
  ],
  "buffers": [
    {
      "uri": "data:application/octet-stream;base64,",
      "byteLength": 20832
    }
  ]
}