{
  "asset": {
    "version": "2.0",
    "generator": "Sketchup glTF Exporter v1.2.6 by Centaur"
  },
  "scene": 0,
  "scenes": [
    {
      "nodes": [
        0
      ]
    }
  ],
  "samplers": [
    {
    }
  ],
  "nodes": [
    {
      "name": "root",
      "children": [
        1
      ]
    },
    {
      "name": "Component",
      "children": [
        2
      ]
    },
    {
      "children": [
        3,
        4,
        5,
        6,
        7,
        8,
        9,
        10,
        11
      ],
      "mesh": 9
    },
    {
      "name": "R2 FOOTCnt",
      "mesh": 0
    },
    {
      "name": "R2 Joint",
      "mesh": 1
    },
    {
      "name": "R2 LEG",
      "mesh": 2
    },
    {
      "name": "R2 PROBE",
      "mesh": 3
    },
    {
      "name": "R2 Prjct b",
      "mesh": 4
    },
    {
      "name": "R2 Prjct f",
      "mesh": 5
    },
    {
      "name": "R2 Prjct t",
      "mesh": 6
    },
    {
      "name": "R2 Feet",
      "mesh": 7
    },
    {
      "name": "R2 Sensor",
      "mesh": 8
    }
  ],
  "materials": [
    {
      "pbrMetallicRoughness": {
        "baseColorFactor": [
          0.0,
          0.0,
          0.0697,
          1.0
        ],
        "metallicFactor": 0.1,
        "roughnessFactor": 0.9
      },
      "name": "BLUE R2 D1"
    },
    {
      "pbrMetallicRoughness": {
        "baseColorFactor": [
          0.7155,
          0.7155,
          0.7155,
          1.0
        ],
        "metallicFactor": 0.1,
        "roughnessFactor": 0.9
      },
      "name": "GREY ALUMINUM1"
    },
    {
      "pbrMetallicRoughness": {
        "baseColorFactor": [
          0.7519,
          0.7519,
          0.7519,
          1.0
        ],
        "metallicFactor": 0.1,
        "roughnessFactor": 0.9
      },
      "name": "A SHIP WHITE1"
    },
    {
      "pbrMetallicRoughness": {
        "baseColorFactor": [
          0.4535,
          0.4535,
          0.4535,
          1.0
        ],
        "metallicFactor": 0.1,
        "roughnessFactor": 0.9
      },
      "name": "Default1"
    },
    {
      "pbrMetallicRoughness": {
        "baseColorFactor": [
          0.3489,
          0.3489,
          0.3489,
          1.0
        ],
        "roughnessFactor": 0.1
      },
      "name": "METAL LIGHT1"
    },
    {
      "pbrMetallicRoughness": {
        "baseColorFactor": [
          0.2158,
          0.2158,
          0.2158,
          1.0
        ],
        "metallicFactor": 0.1,
        "roughnessFactor": 0.9
      },
      "name": "WHITE GENERAL1"
    },
    {
      "pbrMetallicRoughness": {
        "baseColorFactor": [
          0.0008,
          0.0008,
          0.0008,
          1.0
        ],
        "metallicFactor": 0.1,
        "roughnessFactor": 0.9
      },
      "name": "BLACK THRONE1"
    },
    {
      "pbrMetallicRoughness": {
        "baseColorFactor": [
          0.2468,
          0.2468,
          0.2468,
          0.49
        ],
        "metallicFactor": 0.1,
        "roughnessFactor": 0.9
      },
      "name": "BLACK LENS1",
      "doubleSided": true,
      "alphaMode": "BLEND"
    },
    {
      "pbrMetallicRoughness": {
        "baseColorFactor": [
          0.0127,
          0.0127,
          0.0127,
          1.0
        ],
        "metallicFactor": 0.1,
        "roughnessFactor": 0.9
      },
      "name": "BLACK TUBE1"
    },
    {
      "pbrMetallicRoughness": {
        "baseColorFactor": [
          0.7519,
          0.0111,
          0.001,
          1.0
        ],
        "metallicFactor": 0.1,
        "roughnessFactor": 0.9
      },
      "name": "WHITE GLOW1"
    },
    {
      "pbrMetallicRoughness": {
        "baseColorFactor": [
          0.06,
          0.0127,
          0.0026,
          1.0
        ],
        "metallicFactor": 0.1,
        "roughnessFactor": 0.9
      },
      "name": "BROWN RAILING1"
    },
    {
      "pbrMetallicRoughness": {
        "baseColorFactor": [
          0.2176,
          0.2176,
          0.2176,
          1.0
        ],
        "metallicFactor": 0.1,
        "roughnessFactor": 0.9
      },
      "name": "default material",
      "doubleSided": true
    }
  ],
  "meshes": [
    {
      "primitives": [
        {
          "attributes": {
            "POSITION": 0,
            "NORMAL": 1
          },
          "indices": 2,
          "mode": 4,
          "material": 2
        },
        {
          "attributes": {
            "POSITION": 0,
            "NORMAL": 1
          },
          "indices": 3,
          "mode": 4,
          "material": 3
        }
      ]
    },
    {
      "primitives": [
        {
          "attributes": {
            "POSITION": 0,
            "NORMAL": 1
          },
          "indices": 4,
          "mode": 4,
          "material": 4
        }
      ]
    },
    {
      "primitives": [
        {
          "attributes": {
            "POSITION": 0,
            "NORMAL": 1
          },
          "indices": 5,
          "mode": 4,
          "material": 2
        },
        {
          "attributes": {
            "POSITION": 0,
            "NORMAL": 1
          },
          "indices": 6,
          "mode": 4,
          "material": 5
        },
        {
          "attributes": {
            "POSITION": 0,
            "NORMAL": 1
          },
          "indices": 7,
          "mode": 4,
          "material": 6
        },
        {
          "attributes": {
            "POSITION": 0,
            "NORMAL": 1
          },
          "indices": 8,
          "mode": 4,
          "material": 4
        },
        {
          "attributes": {
            "POSITION": 0,
            "NORMAL": 1
          },
          "indices": 9,
          "mode": 4,
          "material": 3
        }
      ]
    },
    {
      "primitives": [
        {
          "attributes": {
            "POSITION": 0,
            "NORMAL": 1
          },
          "indices": 10,
          "mode": 4,
          "material": 0
        }
      ]
    },
    {
      "primitives": [
        {
          "attributes": {
            "POSITION": 0,
            "NORMAL": 1
          },
          "indices": 11,
          "mode": 4,
          "material": 4
        },
        {
          "attributes": {
            "POSITION": 0,
            "NORMAL": 1
          },
          "indices": 12,
          "mode": 4,
          "material": 7
        }
      ]
    },
    {
      "primitives": [
        {
          "attributes": {
            "POSITION": 0,
            "NORMAL": 1
          },
          "indices": 13,
          "mode": 4,
          "material": 4
        },
        {
          "attributes": {
            "POSITION": 0,
            "NORMAL": 1
          },
          "indices": 14,
          "mode": 4,
          "material": 7
        }
      ]
    },
    {
      "primitives": [
        {
          "attributes": {
            "POSITION": 0,
            "NORMAL": 1
          },
          "indices": 15,
          "mode": 4,
          "material": 4
        },
        {
          "attributes": {
            "POSITION": 0,
            "NORMAL": 1
          },
          "indices": 16,
          "mode": 4,
          "material": 7
        }
      ]
    },
    {
      "primitives": [
        {
          "attributes": {
            "POSITION": 0,
            "NORMAL": 1
          },
          "indices": 17,
          "mode": 4,
          "material": 5
        },
        {
          "attributes": {
            "POSITION": 0,
            "NORMAL": 1
          },
          "indices": 18,
          "mode": 4,
          "material": 2
        },
        {
          "attributes": {
            "POSITION": 0,
            "NORMAL": 1
          },
          "indices": 19,
          "mode": 4,
          "material": 3
        },
        {
          "attributes": {
            "POSITION": 0,
            "NORMAL": 1
          },
          "indices": 20,
          "mode": 4,
          "material": 4
        },
        {
          "attributes": {
            "POSITION": 0,
            "NORMAL": 1
          },
          "indices": 21,
          "mode": 4,
          "material": 8
        }
      ]
    },
    {
      "primitives": [
        {
          "attributes": {
            "POSITION": 0,
            "NORMAL": 1
          },
          "indices": 22,
          "mode": 4,
          "material": 0
        },
        {
          "attributes": {
            "POSITION": 0,
            "NORMAL": 1
          },
          "indices": 23,
          "mode": 4,
          "material": 7
        }
      ]
    },
    {
      "primitives": [
        {
          "attributes": {
            "POSITION": 0,
            "NORMAL": 1
          },
          "indices": 24,
          "mode": 4,
          "material": 0
        },
        {
          "attributes": {
            "POSITION": 0,
            "NORMAL": 1
          },
          "indices": 25,
          "mode": 4,
          "material": 1
        },
        {
          "attributes": {
            "POSITION": 0,
            "NORMAL": 1
          },
          "indices": 26,
          "mode": 4,
          "material": 2
        },
        {
          "attributes": {
            "POSITION": 0,
            "NORMAL": 1
          },
          "indices": 27,
          "mode": 4,
          "material": 9
        },
        {
          "attributes": {
            "POSITION": 0,
            "NORMAL": 1
          },
          "indices": 28,
          "mode": 4,
          "material": 4
        },
        {
          "attributes": {
            "POSITION": 0,
            "NORMAL": 1
          },
          "indices": 29,
          "mode": 4,
          "material": 10
        },
        {
          "attributes": {
            "POSITION": 0,
            "NORMAL": 1
          },
          "indices": 30,
          "mode": 4,
          "material": 3
        },
        {
          "attributes": {
            "POSITION": 0,
            "NORMAL": 1
          },
          "indices": 31,
          "mode": 4,
          "material": 11
        }
      ]
    }
  ],
  "accessors": [
    {
      "bufferView": 0,
      "componentType": 5126,
      "count": 13542,
      "type": "VEC3",
      "min": [
        -0.0005085717941212873,
        -1.2320421377409669e-09,
        -0.16747912227918038
      ],
      "max": [
        0.15303442316128485,
        0.22109876423784694,
        -0.05941458102053912
      ]
    },
    {
      "bufferView": 1,
      "componentType": 5126,
      "count": 13542,
      "type": "VEC3",
      "min": [
        -1.0,
        -1.0,
        -1.0
      ],
      "max": [
        1.0,
        1.0,
        1.0
      ]
    },
    {
      "bufferView": 2,
      "componentType": 5123,
      "count": 150,
      "type": "SCALAR"
    },
    {
      "bufferView": 2,
      "componentType": 5123,
      "count": 198,
      "type": "SCALAR",
      "byteOffset": 300
    },
    {
      "bufferView": 2,
      "componentType": 5123,
      "count": 1692,
      "type": "SCALAR",
      "byteOffset": 696
    },
    {
      "bufferView": 2,
      "componentType": 5123,
      "count": 1044,
      "type": "SCALAR",
      "byteOffset": 4080
    },
    {
      "bufferView": 2,
      "componentType": 5123,
      "count": 384,
      "type": "SCALAR",
      "byteOffset": 6168
    },
    {
      "bufferView": 2,
      "componentType": 5123,
      "count": 192,
      "type": "SCALAR",
      "byteOffset": 6936
    },
    {
      "bufferView": 2,
      "componentType": 5123,
      "count": 276,
      "type": "SCALAR",
      "byteOffset": 7320
    },
    {
      "bufferView": 2,
      "componentType": 5123,
      "count": 180,
      "type": "SCALAR",
      "byteOffset": 7872
    },
    {
      "bufferView": 2,
      "componentType": 5123,
      "count": 144,
      "type": "SCALAR",
      "byteOffset": 8232
    },
    {
      "bufferView": 2,
      "componentType": 5123,
      "count": 960,
      "type": "SCALAR",
      "byteOffset": 8520
    },
    {
      "bufferView": 2,
      "componentType": 5123,
      "count": 504,
      "type": "SCALAR",
      "byteOffset": 10440
    },
    {
      "bufferView": 2,
      "componentType": 5123,
      "count": 960,
      "type": "SCALAR",
      "byteOffset": 11448
    },
    {
      "bufferView": 2,
      "componentType": 5123,
      "count": 504,
      "type": "SCALAR",
      "byteOffset": 13368
    },
    {
      "bufferView": 2,
      "componentType": 5123,
      "count": 960,
      "type": "SCALAR",
      "byteOffset": 14376
    },
    {
      "bufferView": 2,
      "componentType": 5123,
      "count": 504,
      "type": "SCALAR",
      "byteOffset": 16296
    },
    {
      "bufferView": 2,
      "componentType": 5123,
      "count": 678,
      "type": "SCALAR",
      "byteOffset": 17304
    },
    {
      "bufferView": 2,
      "componentType": 5123,
      "count": 600,
      "type": "SCALAR",
      "byteOffset": 18660
    },
    {
      "bufferView": 2,
      "componentType": 5123,
      "count": 198,
      "type": "SCALAR",
      "byteOffset": 19860
    },
    {
      "bufferView": 2,
      "componentType": 5123,
      "count": 912,
      "type": "SCALAR",
      "byteOffset": 20256
    },
    {
      "bufferView": 2,
      "componentType": 5123,
      "count": 4152,
      "type": "SCALAR",
      "byteOffset": 22080
    },
    {
      "bufferView": 2,
      "componentType": 5123,
      "count": 270,
      "type": "SCALAR",
      "byteOffset": 30384
    },
    {
      "bufferView": 2,
      "componentType": 5123,
      "count": 504,
      "type": "SCALAR",
      "byteOffset": 30924
    },
    {
      "bufferView": 2,
      "componentType": 5123,
      "count": 897,
      "type": "SCALAR",
      "byteOffset": 31932
    },
    {
      "bufferView": 2,
      "componentType": 5123,
      "count": 1362,
      "type": "SCALAR",
      "byteOffset": 33726
    },
    {
      "bufferView": 2,
      "componentType": 5123,
      "count": 1308,
      "type": "SCALAR",
      "byteOffset": 36450
    },
    {
      "bufferView": 2,
      "componentType": 5123,
      "count": 57,
      "type": "SCALAR",
      "byteOffset": 39066
    },
    {
      "bufferView": 2,
      "componentType": 5123,
      "count": 150,
      "type": "SCALAR",
      "byteOffset": 39180
    },
    {
      "bufferView": 2,
      "componentType": 5123,
      "count": 84,
      "type": "SCALAR",
      "byteOffset": 39480
    },
    {
      "bufferView": 2,
      "componentType": 5123,
      "count": 72,
      "type": "SCALAR",
      "byteOffset": 39648
    },
    {
      "bufferView": 2,
      "componentType": 5123,
      "count": 84,
      "type": "SCALAR",
      "byteOffset": 39792
    }
  ],
  "bufferViews": [
    {
      "buffer": 0,
      "byteLength": 162504,
      "target": 34962,
      "byteStride": 12
    },
    {
      "buffer": 0,
      "byteOffset": 162504,
      "byteLength": 162504,
      "target": 34962,
      "byteStride": 12
    },
    {
      "buffer": 0,
      "byteOffset": 325008,
      "byteLength": 39960,
      "target": 34963
    }
  ],
  "buffers": [
    {
      "uri": "data:application/octet-stream;base64,",
      "byteLength": 364968
    }
  ]
}