{
  "asset": {
    "version": "2.0",
    "generator": "Sketchup glTF Exporter v1.2.6 by Centaur"
  },
  "scene": 0,
  "scenes": [
    {
      "nodes": [
        0
      ]
    }
  ],
  "samplers": [
    {
    }
  ],
  "nodes": [
    {
      "name": "root",
      "children": [
        1
      ]
    },
    {
      "children": [
        2,
        3
      ],
      "mesh": 2
    },
    {
      "name": "Positioning Libr",
      "mesh": 0
    },
    {
      "name": "2018#1",
      "mesh": 1
    }
  ],
  "materials": [
    {
      "pbrMetallicRoughness": {
        "baseColorTexture": {
          "index": 0
        },
        "metallicFactor": 0.1,
        "roughnessFactor": 0.9
      },
      "name": "Pavers with Grass Herringbone"
    },
    {
      "pbrMetallicRoughness": {
        "baseColorFactor": [
          0.0759,
          0.139,
          0.0046,
          1.0
        ],
        "metallicFactor": 0.1,
        "roughnessFactor": 0.9
      },
      "name": "Material2"
    },
    {
      "pbrMetallicRoughness": {
        "baseColorFactor": [
          0.0582,
          0.4205,
          0.0,
          1.0
        ],
        "metallicFactor": 0.1,
        "roughnessFactor": 0.9
      },
      "name": "Material3"
    },
    {
      "pbrMetallicRoughness": {
        "baseColorFactor": [
          0.2176,
          0.2176,
          0.2176,
          1.0
        ],
        "metallicFactor": 0.1,
        "roughnessFactor": 0.9
      },
      "name": "default material",
      "doubleSided": true
    }
  ],
  "images": [
    {
      "bufferView": 0,
      "mimeType": "image/jpeg"
    }
  ],
  "textures": [
    {
      "source": 0,
      "sampler": 0
    }
  ],
  "meshes": [
    {
      "primitives": [
        {
          "attributes": {
            "POSITION": 2,
            "NORMAL": 3,
            "TEXCOORD_0": 4
          },
          "indices": 5,
          "mode": 4,
          "material": 0
        }
      ]
    },
    {
      "primitives": [
        {
          "attributes": {
            "POSITION": 2,
            "NORMAL": 3,
            "TEXCOORD_0": 4
          },
          "indices": 6,
          "mode": 4,
          "material": 0
        }
      ]
    },
    {
      "primitives": [
        {
          "attributes": {
            "POSITION": 0,
            "NORMAL": 1
          },
          "indices": 7,
          "mode": 4,
          "material": 1
        },
        {
          "attributes": {
            "POSITION": 0,
            "NORMAL": 1
          },
          "indices": 8,
          "mode": 4,
          "material": 2
        },
        {
          "attributes": {
            "POSITION": 0,
            "NORMAL": 1
          },
          "indices": 9,
          "mode": 4,
          "material": 3
        }
      ]
    }
  ],
  "accessors": [
    {
      "bufferView": 1,
      "componentType": 5126,
      "count": 726,
      "type": "VEC3",
      "min": [
        0.21185163107742813,
        -0.02314157536200883,
        0.007491750081929393
      ],
      "max": [
        0.3425326906496754,
        0.019092646619592087,
        0.13706249887106894
      ]
    },
    {
      "bufferView": 2,
      "componentType": 5126,
      "count": 726,
      "type": "VEC3",
      "min": [
        -0.9993380000520969,
        -0.9999195398277434,
        -0.9819980956729977
      ],
      "max": [
        0.9788129511345418,
        0.9999195398277434,
        0.9996653546705074
      ]
    },
    {
      "bufferView": 3,
      "componentType": 5126,
      "count": 7842,
      "type": "VEC3",
      "min": [
        -0.36259152792168403,
        -0.02480768102257152,
        0.009784651179953047
      ],
      "max": [
        0.38620087448857265,
        0.02366286211847458,
        0.14309912953380027
      ]
    },
    {
      "bufferView": 4,
      "componentType": 5126,
      "count": 7842,
      "type": "VEC3",
      "min": [
        -0.9999778812986045,
        -0.9999778812986045,
        -0.9999999999999999
      ],
      "max": [
        0.9999778812986045,
        0.9999778812986045,
        0.9999999999999999
      ]
    },
    {
      "bufferView": 5,
      "componentType": 5126,
      "count": 7842,
      "type": "VEC2",
      "min": [
        -21.99543035068944,
        -0.5748031496062993
      ],
      "max": [
        21.99543035068944,
        3.199967739265713
      ]
    },
    {
      "bufferView": 7,
      "componentType": 5123,
      "count": 13020,
      "type": "SCALAR"
    },
    {
      "bufferView": 7,
      "componentType": 5123,
      "count": 2244,
      "type": "SCALAR",
      "byteOffset": 26040
    },
    {
      "bufferView": 6,
      "componentType": 5123,
      "count": 1188,
      "type": "SCALAR"
    },
    {
      "bufferView": 6,
      "componentType": 5123,
      "count": 276,
      "type": "SCALAR",
      "byteOffset": 2376
    },
    {
      "bufferView": 6,
      "componentType": 5123,
      "count": 240,
      "type": "SCALAR",
      "byteOffset": 2928
    }
  ],
  "bufferViews": [
    {
      "buffer": 0,
      "byteLength": 35919
    },
    {
      "buffer": 0,
      "byteOffset": 35928,
      "byteLength": 8712,
      "target": 34962,
      "byteStride": 12
    },
    {
      "buffer": 0,
      "byteOffset": 44640,
      "byteLength": 8712,
      "target": 34962,
      "byteStride": 12
    },
    {
      "buffer": 0,
      "byteOffset": 53352,
      "byteLength": 94104,
      "target": 34962,
      "byteStride": 12
    },
    {
      "buffer": 0,
      "byteOffset": 147456,
      "byteLength": 94104,
      "target": 34962,
      "byteStride": 12
    },
    {
      "buffer": 0,
      "byteOffset": 241560,
      "byteLength": 62736,
      "target": 34962,
      "byteStride": 8
    },
    {
      "buffer": 0,
      "byteOffset": 304296,
      "byteLength": 3408,
      "target": 34963
    },
    {
      "buffer": 0,
      "byteOffset": 307704,
      "byteLength": 30528,
      "target": 34963
    }
  ],
  "buffers": [
    {
      "uri": "data:application/octet-stream;base64,",
      "byteLength": 338232
    }
  ]
}