{
  "asset": {
    "version": "2.0",
    "generator": "Sketchup glTF Exporter v1.2.6 by Centaur"
  },
  "scene": 0,
  "scenes": [
    {
      "nodes": [
        0
      ]
    }
  ],
  "samplers": [
    {
    }
  ],
  "nodes": [
    {
      "name": "root",
      "children": [
        1
      ],
      "mesh": 1
    },
    {
      "name": "AR by Dan Lou#1",
      "mesh": 0
    }
  ],
  "materials": [
    {
      "pbrMetallicRoughness": {
        "baseColorFactor": [
          0.2176,
          0.2176,
          0.2176,
          1.0
        ],
        "metallicFactor": 0.1,
        "roughnessFactor": 0.9
      },
      "name": "default material",
      "doubleSided": true
    },
    {
      "pbrMetallicRoughness": {
        "baseColorFactor": [
          0.0,
          0.0,
          0.0,
          1.0
        ],
        "metallicFactor": 0.1,
        "roughnessFactor": 0.9
      },
      "name": "3D_Text"
    }
  ],
  "meshes": [
    {
      "primitives": [
        {
          "attributes": {
            "POSITION": 0,
            "NORMAL": 1
          },
          "indices": 2,
          "mode": 4,
          "material": 1
        }
      ]
    },
    {
      "primitives": [
        {
          "attributes": {
            "POSITION": 0,
            "NORMAL": 1
          },
          "indices": 3,
          "mode": 4,
          "material": 0
        }
      ]
    }
  ],
  "accessors": [
    {
      "bufferView": 0,
      "componentType": 5126,
      "count": 2955,
      "type": "VEC3",
      "min": [
        0.003128236956566059,
        -5.435787821460211e-18,
        -0.0887731519854511
      ],
      "max": [
        0.10461812495656603,
        0.0019999999999999983,
        -0.0008803307502136367
      ]
    },
    {
      "bufferView": 1,
      "componentType": 5126,
      "count": 2955,
      "type": "VEC3",
      "min": [
        -0.999992429948637,
        -1.0,
        -0.9994832180383777
      ],
      "max": [
        0.9999995226971811,
        1.0,
        1.0
      ]
    },
    {
      "bufferView": 2,
      "componentType": 5123,
      "count": 6855,
      "type": "SCALAR"
    },
    {
      "bufferView": 2,
      "componentType": 5123,
      "count": 138,
      "type": "SCALAR",
      "byteOffset": 13710
    }
  ],
  "bufferViews": [
    {
      "buffer": 0,
      "byteLength": 35460,
      "target": 34962,
      "byteStride": 12
    },
    {
      "buffer": 0,
      "byteOffset": 35460,
      "byteLength": 35460,
      "target": 34962,
      "byteStride": 12
    },
    {
      "buffer": 0,
      "byteOffset": 70920,
      "byteLength": 13986,
      "target": 34963
    }
  ],
  "buffers": [
    {
      "uri": "data:application/octet-stream;base64,",
      "byteLength": 84906
    }
  ]
}