{
  "asset": {
    "version": "2.0",
    "generator": "Sketchup glTF Exporter v1.2.6 by Centaur"
  },
  "scene": 0,
  "scenes": [
    {
      "nodes": [
        0
      ]
    }
  ],
  "samplers": [
    {
    }
  ],
  "nodes": [
    {
      "name": "root",
      "children": [
        1
      ],
      "mesh": 1
    },
    {
      "name": "AR by Dan Lou",
      "mesh": 0
    }
  ],
  "materials": [
    {
      "pbrMetallicRoughness": {
        "baseColorTexture": {
          "index": 0
        },
        "roughnessFactor": 0.1
      },
      "name": "Metal Corrugated Shiny"
    },
    {
      "pbrMetallicRoughness": {
        "baseColorFactor": [
          0.0,
          0.0,
          0.0,
          1.0
        ],
        "metallicFactor": 0.1,
        "roughnessFactor": 0.9
      },
      "name": "3D_Text"
    }
  ],
  "images": [
    {
      "bufferView": 0,
      "mimeType": "image/jpeg"
    }
  ],
  "textures": [
    {
      "source": 0,
      "sampler": 0
    }
  ],
  "meshes": [
    {
      "primitives": [
        {
          "attributes": {
            "POSITION": 0,
            "NORMAL": 1
          },
          "indices": 5,
          "mode": 4,
          "material": 1
        }
      ]
    },
    {
      "primitives": [
        {
          "attributes": {
            "POSITION": 2,
            "NORMAL": 3,
            "TEXCOORD_0": 4
          },
          "indices": 6,
          "mode": 4,
          "material": 0
        }
      ]
    }
  ],
  "accessors": [
    {
      "bufferView": 1,
      "componentType": 5126,
      "count": 2802,
      "type": "VEC3",
      "min": [
        0.034184801376875594,
        0.029036791000000003,
        -0.07652567161057237
      ],
      "max": [
        0.0925571434260634,
        0.034036791000000004,
        -0.03939801100337985
      ]
    },
    {
      "bufferView": 2,
      "componentType": 5126,
      "count": 2802,
      "type": "VEC3",
      "min": [
        -0.9999978889779841,
        -1.0,
        -1.0
      ],
      "max": [
        1.0,
        1.0,
        1.0
      ]
    },
    {
      "bufferView": 3,
      "componentType": 5126,
      "count": 242,
      "type": "VEC3",
      "min": [
        0.0035320370945577423,
        -6.663628360565642e-18,
        -0.10882530971713836
      ],
      "max": [
        0.12353203709455769,
        0.034036791,
        -0.004902261263005684
      ]
    },
    {
      "bufferView": 4,
      "componentType": 5126,
      "count": 242,
      "type": "VEC3",
      "min": [
        -1.0,
        -1.0,
        -1.0
      ],
      "max": [
        1.0,
        1.0,
        1.0
      ]
    },
    {
      "bufferView": 5,
      "componentType": 5126,
      "count": 242,
      "type": "VEC2",
      "min": [
        -1.2158665068361976,
        -0.07111525312144051
      ],
      "max": [
        1.2158665068361976,
        1.0
      ]
    },
    {
      "bufferView": 6,
      "componentType": 5123,
      "count": 6504,
      "type": "SCALAR"
    },
    {
      "bufferView": 7,
      "componentType": 5121,
      "count": 456,
      "type": "SCALAR"
    }
  ],
  "bufferViews": [
    {
      "buffer": 0,
      "byteLength": 1596
    },
    {
      "buffer": 0,
      "byteOffset": 1596,
      "byteLength": 33624,
      "target": 34962,
      "byteStride": 12
    },
    {
      "buffer": 0,
      "byteOffset": 35220,
      "byteLength": 33624,
      "target": 34962,
      "byteStride": 12
    },
    {
      "buffer": 0,
      "byteOffset": 68844,
      "byteLength": 2904,
      "target": 34962,
      "byteStride": 12
    },
    {
      "buffer": 0,
      "byteOffset": 71748,
      "byteLength": 2904,
      "target": 34962,
      "byteStride": 12
    },
    {
      "buffer": 0,
      "byteOffset": 74656,
      "byteLength": 1936,
      "target": 34962,
      "byteStride": 8
    },
    {
      "buffer": 0,
      "byteOffset": 76592,
      "byteLength": 13008,
      "target": 34963
    },
    {
      "buffer": 0,
      "byteOffset": 89600,
      "byteLength": 456,
      "target": 34963
    }
  ],
  "buffers": [
    {
      "uri": "data:application/octet-stream;base64,",
      "byteLength": 90056
    }
  ]
}