{
  "asset": {
    "version": "2.0",
    "generator": "Sketchup glTF Exporter v1.2.6 by Centaur"
  },
  "scene": 0,
  "scenes": [
    {
      "nodes": [
        0
      ]
    }
  ],
  "samplers": [
    {
    }
  ],
  "nodes": [
    {
      "name": "root",
      "children": [
        1
      ],
      "mesh": 1
    },
    {
      "name": "AR by Dan Lou",
      "mesh": 0
    }
  ],
  "materials": [
    {
      "pbrMetallicRoughness": {
        "baseColorTexture": {
          "index": 0
        },
        "roughnessFactor": 0.1
      },
      "name": "Metal Corrugated Shiny"
    },
    {
      "pbrMetallicRoughness": {
        "baseColorTexture": {
          "index": 1
        },
        "roughnessFactor": 0.1
      },
      "name": "Metal Rusted"
    }
  ],
  "images": [
    {
      "bufferView": 0,
      "mimeType": "image/jpeg"
    },
    {
      "bufferView": 1,
      "mimeType": "image/jpeg"
    }
  ],
  "textures": [
    {
      "source": 0,
      "sampler": 0
    },
    {
      "source": 1,
      "sampler": 0
    }
  ],
  "meshes": [
    {
      "primitives": [
        {
          "attributes": {
            "POSITION": 0,
            "NORMAL": 1,
            "TEXCOORD_0": 2
          },
          "indices": 3,
          "mode": 4,
          "material": 1
        }
      ]
    },
    {
      "primitives": [
        {
          "attributes": {
            "POSITION": 0,
            "NORMAL": 1,
            "TEXCOORD_0": 2
          },
          "indices": 4,
          "mode": 4,
          "material": 0
        }
      ]
    }
  ],
  "accessors": [
    {
      "bufferView": 2,
      "componentType": 5126,
      "count": 3506,
      "type": "VEC3",
      "min": [
        0.003064059094557733,
        -6.663628360565642e-18,
        -0.10882530971713836
      ],
      "max": [
        0.12306405909455768,
        0.034036791000000004,
        -0.004902261263005673
      ]
    },
    {
      "bufferView": 3,
      "componentType": 5126,
      "count": 3506,
      "type": "VEC3",
      "min": [
        -1.0,
        -1.0,
        -1.0
      ],
      "max": [
        1.0,
        1.0,
        1.0
      ]
    },
    {
      "bufferView": 4,
      "componentType": 5126,
      "count": 3506,
      "type": "VEC2",
      "min": [
        -2.326335547958953,
        -0.07111525312144051
      ],
      "max": [
        2.3863979141755975,
        1.8715865546507193
      ]
    },
    {
      "bufferView": 5,
      "componentType": 5123,
      "count": 6504,
      "type": "SCALAR"
    },
    {
      "bufferView": 5,
      "componentType": 5123,
      "count": 456,
      "type": "SCALAR",
      "byteOffset": 13008
    }
  ],
  "bufferViews": [
    {
      "buffer": 0,
      "byteLength": 1596
    },
    {
      "buffer": 0,
      "byteOffset": 1596,
      "byteLength": 15228
    },
    {
      "buffer": 0,
      "byteOffset": 16824,
      "byteLength": 42072,
      "target": 34962,
      "byteStride": 12
    },
    {
      "buffer": 0,
      "byteOffset": 58896,
      "byteLength": 42072,
      "target": 34962,
      "byteStride": 12
    },
    {
      "buffer": 0,
      "byteOffset": 100968,
      "byteLength": 28048,
      "target": 34962,
      "byteStride": 8
    },
    {
      "buffer": 0,
      "byteOffset": 129016,
      "byteLength": 13920,
      "target": 34963
    }
  ],
  "buffers": [
    {
      "uri": "data:application/octet-stream;base64,",
      "byteLength": 142936
    }
  ]
}